<?xml version="1.0" encoding="utf-8"?>
<!-- Generator: Adobe Illustrator 24.3.0, SVG Export Plug-In . SVG Version: 6.00 Build 0)  -->
<svg version="1.1" id="Layer_1" xmlns="http://www.w3.org/2000/svg" xmlns:xlink="http://www.w3.org/1999/xlink" x="0px" y="0px"
	 viewBox="0 0 729.1 485.1" style="enable-background:new 0 0 729.1 485.1;" xml:space="preserve">
<style type="text/css">
	.st0{display:none;fill:#FFFFFF;}
	.st1{display:none;fill:url(#SVGID_1_);}
	.st2{display:none;}
	.st3{fill:#74B2CD;}
	.st4{fill:#FFFFFF;}
</style>
<rect x="-1437" y="-586.8" class="st0" width="2739.2" height="1759.5"/>
<linearGradient id="SVGID_1_" gradientUnits="userSpaceOnUse" x1="-1476.7499" y1="353.25" x2="1088.4501" y2="353.25" gradientTransform="matrix(-1 0 0 1 -168.35 -110)">
	<stop  offset="0" style="stop-color:#FFFFFF"/>
	<stop  offset="0.28" style="stop-color:#FFFFFF"/>
	<stop  offset="0.34" style="stop-color:#FFFFFF;stop-opacity:0.98"/>
	<stop  offset="0.41" style="stop-color:#FFFFFF;stop-opacity:0.92"/>
	<stop  offset="0.49" style="stop-color:#FFFFFF;stop-opacity:0.81"/>
	<stop  offset="0.58" style="stop-color:#FFFFFF;stop-opacity:0.67"/>
	<stop  offset="0.67" style="stop-color:#FFFFFF;stop-opacity:0.49"/>
	<stop  offset="0.77" style="stop-color:#FFFFFF;stop-opacity:0.26"/>
	<stop  offset="0.86" style="stop-color:#FFFFFF;stop-opacity:0"/>
	<stop  offset="0.87" style="stop-color:#FFFFFF;stop-opacity:0"/>
</linearGradient>
<rect x="-1256.8" y="-169.1" class="st1" width="2565.2" height="824.7"/>
<g class="st2">
	
		<image style="display:inline;overflow:visible;enable-background:new    ;" width="1035" height="664" xlink:href="87147430.png"  transform="matrix(1.48 0 0 1.51 -1467.22 -355.64)">
	</image>
</g>
<rect x="-50.6" y="-206.1" class="st0" width="857" height="867.3"/>
<path class="st3" d="M698.6,61.5c-13.2-16.5-32.1-28.4-56.5-35.9c-11.3-3.3-22.9-5.6-34.7-6.9c-15.1-1.6-30.2-2.4-45.4-2.3H458.6
	v230.2c-0.6,7.6-12.7,39.5-20.7,52.3c-5.7,9.2-6.4,10.3-11.7,15c-6.2-6.4-12.2-12.6-17.8-18.4s-10.6-10.9-15-15.4
	c4.6-2.8,9-5.9,13.2-9.1c4.1-3.2,7.8-6.8,11.1-10.7c3.2-4,5.8-8.4,7.6-13.2c1.9-5.3,2.9-10.8,2.8-16.5c0.1-6.2-1.2-12.4-3.7-18.1
	c-2.5-5.1-6.1-9.6-10.7-13.1c-5-3.7-10.8-6.4-16.8-8c-7.3-1.9-14.8-2.7-22.3-2.7c-7.5-0.1-15.1,0.9-22.3,3
	c-6.1,1.7-11.7,4.6-16.7,8.5c-4.5,3.7-8.1,8.4-10.4,13.7c-4,9.9-4.7,20.8-1.8,31.1c1.2,4,2.9,7.8,5,11.4c2.2,3.7,4.7,7.1,7.5,10.3
	c3,3.4,6.1,6.6,9.5,9.9c-4.5,2.8-8.9,5.8-13.1,9.1c-2.8,2.1-5.4,4.5-7.8,7.2L214.6,16.5h-60L12.4,374.9h69.9l35.1-91.4h134.9
	l35.1,91.4h78.2c10.2,0,20.3-1.5,30.1-4.3c10-2.9,19.4-7.4,27.9-13.3c3.1,3.4,5.6,6.2,7.5,8.2s7.5,7.5,9,9.5h84V234.8
	c5,0.6,10.4,0.9,16.1,1.1s11.6,0.2,17.4,0.2c25.7,0,48.4-2.6,68.3-7.8s36.6-12.6,50.4-22.2c13.8-9.6,24.2-21.3,31.4-35.2
	s10.7-29.4,10.7-46.7C718.4,98.9,711.8,78,698.6,61.5z M138.6,228.7l12.2-31.9c9.8-25.1,21-56.5,33.6-94h1.1
	c12.6,37.3,23.7,68.6,33.5,94l12.2,31.9H138.6z M355.7,225.3c0.9-2.1,2.3-3.9,4-5.3c1.9-1.6,4.1-2.8,6.4-3.6c2.8-1,5.8-1.4,8.8-1.4
	c6.5,0,11.6,1.6,15.2,4.7c3.6,3.1,5.5,7.7,5.3,12.4c0,2.9-0.5,5.8-1.7,8.5s-2.7,5.2-4.6,7.4c-2,2.5-4.4,4.7-6.9,6.6
	c-2.7,2.1-5.6,4-8.7,6c-3-2.8-5.6-5.3-8-7.6c-2.2-2.2-4.2-4.5-6-6.9c-1.6-2.1-2.8-4.4-3.7-6.9c-0.9-2.4-1.3-4.9-1.3-7.5
	C354.3,229.5,354.8,227.3,355.7,225.3L355.7,225.3z M387.2,346.1c-6,1.9-12.3,2.8-18.6,2.8c-3.3,0-6.6-0.4-9.8-1.4
	c-2.9-0.9-5.6-2.3-8-4.3c-2.3-1.9-4.2-4.3-5.5-6.9c-1.4-3.1-2.1-6.4-2-9.8c-0.1-3.1,0.5-6.1,1.7-9c1.1-2.8,2.7-5.4,4.6-7.8
	c2-2.5,4.3-4.8,6.9-6.9c2.8-2.2,5.7-4.3,8.8-6.2c2.8,3,5.9,6.1,9.1,9.4c3.3,3.2,6.6,6.6,10,10.1s6.9,7,10.3,10.6l10.4,10.6
	C399.6,341.3,393.6,344.2,387.2,346.1z M446.5,335.3c4.9-6.6,8.9-13.7,12.1-21.3v33.8C454.9,343.9,450.7,339.7,446.5,335.3z
	 M645.9,146.6c-3.5,7.5-9,13.9-15.9,18.5c-7.3,5-17,9.1-29,11.9s-26.8,4.3-44.4,4.3c-6.2,0-12.3-0.1-18.1-0.4s-10.6-0.7-14.4-1.2
	V71.4h37c11.3-0.1,22.6,0.4,33.8,1.4c7.9,0.7,15.6,2.3,23.2,4.7c12,4.3,20.4,10.3,25.2,17.9s7.2,16.8,7.2,27.4
	C650.7,131,649.1,139.1,645.9,146.6z"/>
<path class="st4" d="M17.6,455.3L38,405.6h3.2l20.4,49.7H58l-7.1-17.7H28.3l-7.1,17.7H17.6z M49.6,434.7l-1.9-4.8
	c-4.1-10.3-6.8-17.1-8-20.4h-0.2c-1,2.8-2.7,7-5,12.6c-0.7,1.7-2.4,5.9-5.1,12.6L49.6,434.7L49.6,434.7z"/>
<path class="st4" d="M66.9,454.5v-3.1c2.9,1.5,6.2,2.3,9.4,2.2c2.5,0.1,5-0.6,7-2.1c1.7-1.4,2.7-3.6,2.6-5.8
	c0.1-1.6-0.5-3.2-1.7-4.4c-1.7-1.3-3.7-2.1-5.7-2.5c-2-0.5-4-1.1-6-1.9c-1.5-0.6-2.8-1.6-3.8-2.8c-1-1.4-1.6-3.2-1.5-4.9
	c0-3.2,1.1-5.7,3.3-7.2c2.5-1.7,5.4-2.5,8.4-2.4c3,0,6,0.7,8.7,2v2.9c-1.3-0.7-2.7-1.2-4.2-1.7c-1.5-0.4-3.1-0.6-4.7-0.6
	c-2.8,0-4.9,0.6-6.4,1.8c-1.5,1.2-2.3,3-2.2,4.9c-0.1,1.2,0.3,2.5,1,3.5c0.8,0.9,1.7,1.5,2.8,1.9c1.8,0.6,3.6,1.2,5.4,1.6
	c3.3,0.8,5.8,2,7.3,3.4c1.6,1.6,2.4,3.8,2.3,6.1c0.1,3-1.1,5.9-3.3,7.8c-2.2,2-5.3,2.9-9.2,2.9C72.2,456.3,69,455.7,66.9,454.5z"/>
<path class="st4" d="M100.1,447v-23.6h-6.9v-2.8h6.9v-9.3h3v9.3h10.6v2.8H103v22.8c0,2.7,0.5,4.6,1.6,5.7c1,1.1,2.7,1.7,4.9,1.7
	c1.6,0.1,3.2-0.2,4.7-0.6v2.6c-1.7,0.5-3.5,0.8-5.3,0.8c-2.4,0.1-4.7-0.7-6.5-2.3C100.8,452.4,100.1,450.1,100.1,447z"/>
<path class="st4" d="M125.7,420.6l0.5,6.2h0.1c1.5-2.1,3.5-3.9,5.8-5.1c2.4-1.3,5-2,7.8-2h1v2.9h-1c-2.8,0-5.5,0.8-7.9,2.2
	c-2.4,1.4-4.4,3.4-5.7,5.8v24.6h-3v-34.8h2.4V420.6z"/>
<path class="st4" d="M145.6,438c0-5.5,1.4-10,4.3-13.3c5.7-6.2,15.4-6.7,21.6-1c0.4,0.3,0.7,0.7,1,1c2.8,3.3,4.2,7.8,4.2,13.4
	c0,5.4-1.4,9.8-4.3,13.2c-2.8,3.3-6.9,5.1-11.2,5c-4.4,0.2-8.5-1.7-11.4-5C147.1,448,145.6,443.6,145.6,438z M173.6,438
	c0-4.8-1.1-8.6-3.4-11.4c-2.1-2.8-5.5-4.3-9-4.2c-3.5-0.1-6.9,1.4-9.1,4.2c-2.2,2.8-3.4,6.6-3.4,11.4s1.1,8.6,3.3,11.3
	c2.2,2.8,5.6,4.3,9.1,4.2c3.5,0.1,6.8-1.4,9-4.1C172.5,446.6,173.6,442.8,173.6,438z"/>
<path class="st4" d="M189.8,420.6l0.5,5.6h0.1c1.3-2,3.1-3.6,5.1-4.8c2-1.1,4.2-1.7,6.5-1.7c3.7,0,6.4,1.1,8.3,3.2
	c1.9,2.2,2.8,5.3,2.8,9.5v22.9h-2.9v-22.5c0-3.5-0.7-6.1-2-7.8s-3.5-2.6-6.6-2.6c-2.2,0-4.3,0.7-6.1,2c-2.1,1.4-3.8,3.2-5.1,5.3
	v25.7h-3v-34.7h2.4V420.6z"/>
<path class="st4" d="M223.4,438c0-5.5,1.4-10,4.3-13.3c5.7-6.2,15.4-6.7,21.6-1c0.4,0.3,0.7,0.7,1,1c2.8,3.3,4.2,7.8,4.2,13.4
	c0,5.4-1.4,9.8-4.3,13.2c-2.8,3.3-6.9,5.1-11.2,5c-4.4,0.2-8.5-1.7-11.4-5C224.8,448,223.4,443.6,223.4,438z M251.4,438
	c0-4.8-1.1-8.6-3.4-11.4c-2.1-2.8-5.5-4.3-9-4.2c-3.5-0.1-6.9,1.4-9.1,4.2c-2.2,2.8-3.4,6.6-3.4,11.4s1.1,8.6,3.3,11.3
	c2.2,2.8,5.6,4.3,9.1,4.2c3.5,0.1,6.8-1.4,9-4.1C250.2,446.6,251.4,442.8,251.4,438z"/>
<path class="st4" d="M267.5,420.6l0.6,4.9h0.1c1.4-1.7,3.1-3.2,5-4.3c1.9-1,4.1-1.5,6.2-1.4c2.6-0.1,5.1,0.6,7.2,2
	c1.7,1.2,3,3,3.7,5h0.1c1.4-2.1,3.2-3.9,5.3-5.3c2-1.2,4.3-1.8,6.6-1.7c3.8,0,6.7,1.1,8.7,3.3s3,5.3,3,9.2v23.1h-3V433
	c0-7-3-10.5-9-10.5c-2.2-0.1-4.4,0.6-6.2,2c-1.9,1.6-3.6,3.5-4.9,5.6v25.4h-3V432c0.1-2.5-0.7-5-2.4-6.9c-1.8-1.8-4.2-2.7-6.7-2.5
	c-2.1,0-4.1,0.5-5.9,1.6c-1.9,1.3-3.6,2.8-5,4.6v26.7h-3v-34.7h2.6V420.6z"/>
<path class="st4" d="M322.2,420.6h3.2c7,18.9,10.9,29.5,11.8,31.5h0.3l12.2-31.5h3.2l-21,52h-3.2l7-17L322.2,420.6z"/>
<path class="st4" d="M373.3,445.4c-0.1-2.9,1.1-5.7,3.4-7.6c2.4-2,5.5-3,8.7-2.9c3.6,0.1,7.3,0.8,10.7,2.1v-4.5
	c0-3.3-0.9-5.8-2.6-7.5s-4.4-2.5-8.2-2.5c-3.1,0.1-6.1,0.7-8.9,1.8v-2.8c1.2-0.6,2.4-1,3.7-1.2c1.7-0.3,3.4-0.5,5.2-0.5
	c4.6,0,8.1,1.1,10.3,3.2s3.4,5.3,3.4,9.6v11.8c0,2.5,0.1,6.2,0.3,11.1h-2.7l-0.5-4H396c-1.4,1.5-3.1,2.7-5,3.5
	c-2,0.9-4.2,1.5-6.4,1.5c-3,0.1-5.9-0.8-8.2-2.7C374.3,451.7,373.3,449,373.3,445.4z M396,448.2v-8.7c-1.6-0.6-3.3-1.1-5-1.5
	c-2-0.3-4-0.5-6-0.4c-2.3-0.1-4.5,0.6-6.3,2c-1.6,1.5-2.4,3.6-2.3,5.8c0,2.8,0.8,4.8,2.3,6.2c1.7,1.4,3.8,2.1,6,2
	c2.3,0.1,4.7-0.5,6.7-1.6C393.1,450.9,394.7,449.6,396,448.2z"/>
<path class="st4" d="M414.6,420.6l0.5,5.6h0.1c1.3-2,3.1-3.6,5.2-4.8c2-1.1,4.2-1.7,6.5-1.7c3.7,0,6.4,1.1,8.3,3.2
	c1.9,2.2,2.8,5.3,2.8,9.5v22.9h-3v-22.5c0-3.5-0.7-6.1-2-7.8c-1.3-1.7-3.5-2.6-6.5-2.6c-2.2,0-4.3,0.7-6.1,2
	c-2.1,1.4-3.8,3.2-5.1,5.3v25.7h-3v-34.7h2.3V420.6z"/>
<path class="st4" d="M448.3,438.2c0-5.7,1.4-10.1,4.1-13.5c2.7-3.3,6.7-5.2,11-5c2.1,0,4.2,0.4,6.2,1.2c1.8,0.8,3.4,2.1,4.6,3.8h0.1
	l-0.1-4.2v-19h3v47c0,2.9,0.1,5.2,0.2,6.8h-2.2l-0.8-4h-0.1c-1.2,1.5-2.8,2.7-4.6,3.5c-1.9,0.9-4,1.5-6.2,1.5
	c-2.6,0-5.2-0.6-7.5-1.9c-2.4-1.4-4.3-3.5-5.5-6C448.9,445.1,448.2,441.7,448.3,438.2z M474.1,447.5v-19.7
	c-3.1-3.6-6.6-5.4-10.7-5.4c-3.5-0.1-6.8,1.5-8.8,4.3c-2.1,2.9-3.2,6.7-3.2,11.6c0,4.7,1.1,8.5,3.2,11.1c2.1,2.7,5.4,4.2,8.8,4
	c2.2,0,4.4-0.6,6.3-1.7C471.5,450.8,473,449.3,474.1,447.5L474.1,447.5z"/>
<path class="st4" d="M518.5,405.6c5.6,0,9.9,1.1,13,3.4s4.7,5.6,4.7,9.9c0,5.2-1.9,9-5.7,11.5s-9.2,3.8-16.4,3.8
	c-1.9,0-3.8-0.2-5.7-0.4v21.5h-3.3v-49.7L518.5,405.6L518.5,405.6z M532.8,419.1c0-3.7-1.3-6.4-4-8s-6.5-2.4-11.4-2.5h-8.9v22.3
	c2.5,0.3,4.4,0.4,5.7,0.4c6.6,0,11.3-1,14.2-3.1C531.3,426.1,533,422.6,532.8,419.1z"/>
<path class="st4" d="M541.6,420.6h3.2c7,18.9,10.9,29.5,11.8,31.5h0.3l12.2-31.5h3.2l-21,52H548l7-17L541.6,420.6z"/>
<path class="st4" d="M581.6,447v-23.6h-6.9v-2.8h6.9v-9.3h3v9.3h10.6v2.8h-10.7v22.8c0,2.7,0.5,4.6,1.6,5.7s2.7,1.7,4.9,1.7
	c1.6,0.1,3.2-0.2,4.7-0.6v2.6c-1.7,0.5-3.5,0.8-5.3,0.8c-2.4,0.1-4.7-0.7-6.5-2.3C582.4,452.4,581.6,450.1,581.6,447z"/>
<path class="st4" d="M607.8,401.5v20.8l-0.2,4h0.2c3.2-4.4,7.1-6.5,11.6-6.5c3.8,0,6.7,1.1,8.5,3.4s2.7,5.4,2.7,9.4v22.9h-2.9v-23.2
	c0.2-2.5-0.5-5.1-2-7.2c-1.3-1.7-3.4-2.6-6.3-2.6c-4.4,0-8.3,2.4-11.5,7.2v25.7h-3v-53.9L607.8,401.5L607.8,401.5z"/>
<path class="st4" d="M640.9,438c0-5.5,1.4-10,4.3-13.3c2.8-3.3,7-5.2,11.3-5c4.3-0.2,8.5,1.7,11.3,5s4.2,7.8,4.2,13.4
	c0,5.4-1.4,9.8-4.3,13.2c-2.8,3.3-6.9,5.1-11.2,5c-4.4,0.2-8.5-1.7-11.3-5C642.3,448,640.9,443.6,640.9,438z M668.8,438
	c0-4.8-1.1-8.6-3.3-11.4c-2.1-2.8-5.5-4.3-9-4.2c-3.5-0.1-6.9,1.4-9.1,4.2c-2.2,2.8-3.4,6.6-3.4,11.4s1.1,8.6,3.3,11.3
	c4.3,5,11.9,5.6,16.9,1.2c0.4-0.4,0.9-0.8,1.2-1.2C667.7,446.6,668.8,442.8,668.8,438z"/>
<path class="st4" d="M685,420.6l0.5,5.6h0.1c1.3-2,3.1-3.6,5.2-4.8c2-1.1,4.2-1.7,6.5-1.7c3.7,0,6.5,1.1,8.3,3.2s2.8,5.3,2.8,9.5
	v22.9h-2.9v-22.5c0-3.5-0.7-6.1-2-7.8c-1.3-1.7-3.5-2.6-6.5-2.6c-2.2,0-4.3,0.7-6.1,2c-2.1,1.4-3.8,3.2-5.1,5.3v25.7h-3v-34.7h2.2
	V420.6z"/>
</svg>
